<svg width="25" height="24" viewBox="0 0 25 24" fill="none" xmlns="http://www.w3.org/2000/svg">
<path fill-rule="evenodd" clip-rule="evenodd" d="M6.51513 10.3333C5.53737 10.3333 5.33331 10.5252 5.33331 11.4444V13.1111C5.33331 14.0304 5.53737 14.2222 6.51513 14.2222H8.87876V20.8889C8.87876 21.8081 9.08282 22 10.0606 22H12.4242C13.402 22 13.606 21.8081 13.606 20.8889V14.2222H16.26C17.0016 14.2222 17.1927 14.0867 17.3964 13.4164L17.9029 11.7497C18.2518 10.6014 18.0368 10.3333 16.7665 10.3333H13.606V7.55556C13.606 6.94191 14.1351 6.44444 14.7878 6.44444H18.1515C19.1292 6.44444 19.3333 6.25259 19.3333 5.33333V3.11111C19.3333 2.19185 19.1292 2 18.1515 2H14.7878C11.5243 2 8.87876 4.48731 8.87876 7.55556V10.3333H6.51513Z" stroke="white" stroke-width="1.5" stroke-linejoin="round"/>
</svg>
