<svg width="25" height="24" viewBox="0 0 25 24" fill="none" xmlns="http://www.w3.org/2000/svg">
<path d="M2.83331 12C2.83331 7.52166 2.83331 5.28249 4.22455 3.89124C5.6158 2.5 7.85497 2.5 12.3333 2.5C16.8116 2.5 19.0508 2.5 20.4421 3.89124C21.8333 5.28249 21.8333 7.52166 21.8333 12C21.8333 16.4783 21.8333 18.7175 20.4421 20.1088C19.0508 21.5 16.8116 21.5 12.3333 21.5C7.85497 21.5 5.6158 21.5 4.22455 20.1088C2.83331 18.7175 2.83331 16.4783 2.83331 12Z" stroke="white" stroke-width="1.5" stroke-linejoin="round"/>
<path d="M16.8333 12C16.8333 14.4853 14.8186 16.5 12.3333 16.5C9.84803 16.5 7.83331 14.4853 7.83331 12C7.83331 9.51472 9.84803 7.5 12.3333 7.5C14.8186 7.5 16.8333 9.51472 16.8333 12Z" stroke="white" stroke-width="1.5"/>
<path d="M17.8411 6.5H17.8321" stroke="white" stroke-width="2" stroke-linecap="round" stroke-linejoin="round"/>
</svg>
