<svg width="25" height="24" viewBox="0 0 25 24" fill="none" xmlns="http://www.w3.org/2000/svg">
<path d="M2.83344 12C2.83344 7.52166 2.83344 5.28249 4.22468 3.89124C5.61593 2.5 7.85509 2.5 12.3334 2.5C16.8118 2.5 19.0509 2.5 20.4422 3.89124C21.8334 5.28249 21.8334 7.52166 21.8334 12C21.8334 16.4783 21.8334 18.7175 20.4422 20.1088C19.0509 21.5 16.8118 21.5 12.3334 21.5C7.85509 21.5 5.61593 21.5 4.22468 20.1088C2.83344 18.7175 2.83344 16.4783 2.83344 12Z" stroke="white" stroke-width="1.5" stroke-linecap="round" stroke-linejoin="round"/>
<path d="M7.33344 17L11.527 12.8065M11.527 12.8065L7.33344 7H10.1112L13.1399 11.1935M11.527 12.8065L14.5556 17H17.3334L13.1399 11.1935M17.3334 7L13.1399 11.1935" stroke="white" stroke-width="1.5" stroke-linecap="round" stroke-linejoin="round"/>
</svg>
