<svg width="25" height="24" viewBox="0 0 25 24" fill="none" xmlns="http://www.w3.org/2000/svg">
<path d="M12.3333 20.5C14.143 20.5 15.8784 20.3212 17.4867 19.9934C19.4956 19.5839 20.5001 19.3791 21.4167 18.2006C22.3333 17.0221 22.3333 15.6693 22.3333 12.9635V11.0365C22.3333 8.33073 22.3333 6.97787 21.4167 5.79937C20.5001 4.62088 19.4956 4.41613 17.4867 4.00662C15.8784 3.67877 14.143 3.5 12.3333 3.5C10.5236 3.5 8.7882 3.67877 7.17987 4.00662C5.17097 4.41613 4.16652 4.62088 3.24991 5.79937C2.33331 6.97787 2.33331 8.33073 2.33331 11.0365V12.9635C2.33331 15.6693 2.33331 17.0221 3.24991 18.2006C4.16652 19.3791 5.17097 19.5839 7.17987 19.9934C8.7882 20.3212 10.5236 20.5 12.3333 20.5Z" stroke="white" stroke-width="1.5"/>
<path d="M16.2954 12.3129C16.147 12.9187 15.3574 13.3538 13.7782 14.2241C12.0605 15.1705 11.2017 15.6438 10.5061 15.4615C10.2705 15.3997 10.0535 15.2911 9.8713 15.1438C9.33331 14.7089 9.33331 13.8059 9.33331 12C9.33331 10.1941 9.33331 9.29112 9.8713 8.85618C10.0535 8.70886 10.2705 8.60029 10.5061 8.53854C11.2017 8.35621 12.0605 8.82945 13.7782 9.77593C15.3574 10.6462 16.147 11.0813 16.2954 11.6871C16.3459 11.8933 16.3459 12.1067 16.2954 12.3129Z" stroke="white" stroke-width="1.5" stroke-linejoin="round"/>
</svg>
